:SAMPLES-PER-SECOND 30
:FULLY-SPECIFIED
:DEGREES
34
root  -2.94587 38.9627 -6.07763 -171.424 -68.7766 165.468
RightUpLeg  -21.2022 -14.7952 -9.75848
RightLeg  11.4621 -1.23898 0.618177
RightFoot  4.31122 -0.593602 4.53029
RightToes  0.00048216 0.542163 -0.142577
Spine  17.0413 -4.50611 -8.86008
Spine1  6.88481 -8.06403 7.38405
HEad  4.21368 14.3608 -11.9789
LeftShoulder1  5.98769 -9.90564 -38.4699
LeftArm  -0.352764 -10.8739 -46.4506
LeftForeArm  32.0139 -17.2016 -4.76814
LeftHand  -0.25398 0.0180481 5.50724
RightShoulder  4.02641 7.56846 30.4076
RightArm  -5.76919 -29.4444 50.0405
RightForeArm  30.8953 13.5899 5.61977
RightHand  -0.203386 -1.54097 -5.91038
LeftUpLeg  14.4977 8.65769 1.67273
LeftLeg  12.9601 13.8471 -1.59681
LeftFoot  -20.8416 -0.616321 -8.90779
LeftToes  1.06243e-005 4.65856e-005 -8.18503e-006
35
root  -3.90764 38.8671 -6.74404 -175.225 -68.7329 170.132
RightUpLeg  -22.2971 -16.7834 -6.94504
RightLeg  15.011 -0.53898 0.074089
RightFoot  5.74418 -0.528242 3.77378
RightToes  0.00048216 0.542163 -0.142577
Spine  17.8724 -5.51296 -6.63411
Spine1  6.50827 -8.98912 7.97469
HEad  3.55346 16.5233 -12.9855
LeftShoulder1  6.03611 -10.0355 -38.4031
LeftArm  1.32404 -11.2877 -47.8201
LeftForeArm  30.7721 -19.636 -4.01022
LeftHand  -0.25398 0.0180481 5.50724
RightShoulder  4.05302 7.69719 30.2252
RightArm  -3.86217 -30.3467 48.9641
RightForeArm  29.0004 14.1294 5.73788
RightHand  -0.216927 -1.83111 -6.6982
LeftUpLeg  15.9578 9.07705 3.88848
LeftLeg  12.5896 13.8803 -0.802603
LeftFoot  -21.0093 -0.625729 -8.86567
LeftToes  1.06243e-005 4.65856e-005 -8.18503e-006
36
root  -4.93392 38.7683 -7.45648 179.502 -68.5186 176.198
RightUpLeg  -22.8574 -17.6484 -3.99996
RightLeg  18.4483 0.302176 -0.127206
RightFoot  5.32453 -0.419161 3.10198
RightToes  0.00048216 0.542163 -0.142577
Spine  18.8343 -6.66091 -3.57683
Spine1  6.21886 -9.81142 8.18697
HEad  2.87887 18.7297 -13.8068
LeftShoulder1  6.12406 -10.2069 -38.4843
LeftArm  1.3436 -11.1774 -48.0125
LeftForeArm  29.7454 -21.9836 -3.52765
LeftHand  -0.25398 0.0180481 5.50724
RightShoulder  4.0705 7.85867 29.8586
RightArm  -4.46282 -30.21 47.5191
RightForeArm  26.8375 13.7479 5.83568
RightHand  -0.25167 -1.64443 -7.50821
LeftUpLeg  17.2707 10.3626 6.94821
LeftLeg  13.1652 12.4201 0.516236
LeftFoot  -21.194 -0.787893 -10.5703
LeftToes  1.06243e-005 4.65856e-005 -8.18503e-006
37
root  -5.94578 38.6676 -8.23006 175.311 -67.907 -179.01
RightUpLeg  -22.9953 -17.3301 -1.8897
RightLeg  21.9071 0.582156 0.0411165
RightFoot  3.12091 -0.253469 2.15433
RightToes  0.00048216 0.542163 -0.142577
Spine  19.7794 -7.49253 -1.16105
Spine1  6.22966 -10.3583 8.50971
HEad  2.38324 20.7796 -14.4277
LeftShoulder1  6.305 -10.4509 -38.978
LeftArm  0.207396 -10.9593 -46.9403
LeftForeArm  29.7011 -23.9653 -3.55272
LeftHand  -0.25398 0.0180481 5.50724
RightShoulder  4.09539 7.9709 29.7227
RightArm  -6.68141 -28.718 45.7201
RightForeArm  25.5727 12.6401 5.83137
RightHand  -0.258315 -1.5322 -7.50463
LeftUpLeg  17.611 12.1783 9.85115
LeftLeg  15.9383 10.0201 2.49568
LeftFoot  -20.3755 -1.05928 -15.0299
LeftToes  1.06243e-005 4.65856e-005 -8.18503e-006
38
root  -6.88557 38.5974 -9.04222 173.223 -66.9456 -176.48
RightUpLeg  -22.9478 -17.1631 -0.398469
RightLeg  25.0315 1.09377 0.333193
RightFoot  0.352924 -0.129139 1.28815
RightToes  0.00048216 0.542163 -0.142577
Spine  20.5931 -7.75256 0.259988
Spine1  6.47208 -10.3833 8.79945
HEad  2.34744 22.085 -14.5342
LeftShoulder1  6.49427 -10.7014 -39.4904
LeftArm  -1.22127 -10.7259 -45.426
LeftForeArm  30.1494 -25.2373 -3.81135
LeftHand  -0.25398 0.0180481 5.50724
RightShoulder  4.14327 8.00651 30.0336
RightArm  -9.70531 -25.9012 43.7971
RightForeArm  24.1188 10.9947 5.60757
RightHand  -0.256197 -1.78843 -7.93511
LeftUpLeg  15.5344 11.8231 11.0781
LeftLeg  22.8894 11.3153 5.7297
LeftFoot  -16.9914 -0.78879 -17.7415
LeftToes  1.06243e-005 4.65856e-005 -8.18503e-006
39
root  -7.77128 38.5813 -9.82152 171.941 -65.7912 -174.821
RightUpLeg  -22.4502 -17.2196 0.759318
RightLeg  27.253 1.88876 0.823486
RightFoot  -2.24637 -0.10559 1.15296
RightToes  0.00048216 0.542163 -0.142577
Spine  21.208 -7.66246 1.85283
Spine1  6.84142 -9.80548 8.33975
HEad  2.79616 22.2383 -14.0427
LeftShoulder1  6.59964 -10.9207 -39.5256
LeftArm  -2.51072 -10.3057 -44.3469
LeftForeArm  30.0545 -25.8914 -3.95681
LeftHand  -0.25398 0.0180481 5.50724
RightShoulder  4.22771 8.13773 30.3584
RightArm  -12.981 -22.449 42.3231
RightForeArm  21.4422 9.53516 5.04882
RightHand  -0.284242 -2.04212 -9.44548
LeftUpLeg  10.9077 10.1983 11.2551
LeftLeg  33.6538 14.1509 10.2661
LeftFoot  -10.8424 0.0869048 -14.0101
LeftToes  1.06243e-005 4.65856e-005 -8.18503e-006
40
root  -8.64067 38.5871 -10.5137 170.357 -64.6917 -172.925
RightUpLeg  -21.3651 -17.5062 1.77494
RightLeg  28.621 2.97776 1.52001
RightFoot  -4.79861 -0.140458 1.90932
RightToes  0.00048216 0.542163 -0.142577
Spine  21.5507 -7.55704 4.3445
Spine1  7.40756 -8.79507 6.97545
HEad  3.41969 21.4434 -13.3808
LeftShoulder1  6.67161 -11.181 -39.2216
LeftArm  -3.88742 -9.65159 -43.6436
LeftForeArm  29.4601 -26.3539 -4.08699
LeftHand  -0.25398 0.0180481 5.50724
RightShoulder  4.32575 8.47083 30.166
RightArm  -15.7451 -18.9259 41.4193
RightForeArm  17.86 8.96724 4.48557
RightHand  -0.359019 -1.72964 -11.0904
LeftUpLeg  5.1765 9.69326 11.5039
LeftLeg  44.327 12.5479 13.083
LeftFoot  -5.12175 0.422716 -6.88063
LeftToes  1.06243e-005 4.65856e-005 -8.18503e-006
41
root  -9.52424 38.6401 -11.1608 169.258 -63.7522 -171.669
RightUpLeg  -19.7019 -17.9916 2.287
RightLeg  29.2783 4.21572 2.31086
RightFoot  -7.18745 -0.156897 2.96512
RightToes  0.00048216 0.542163 -0.142577
Spine  21.5696 -7.27901 6.70998
Spine1  8.22531 -7.58611 5.35045
HEad  3.89357 20.2327 -12.994
LeftShoulder1  6.78963 -11.506 -39.0345
LeftArm  -5.18953 -8.86987 -42.8329
LeftForeArm  28.8692 -26.8507 -4.22547
LeftHand  -0.25398 0.0180481 5.50724
RightShoulder  4.38057 8.81266 29.5964
RightArm  -16.9634 -15.1337 40.4308
RightForeArm  13.9785 9.22072 4.43594
RightHand  -0.496634 -0.724081 -12.2699
LeftUpLeg  -0.395217 9.80247 11.3347
LeftLeg  52.1205 8.13992 11.4806
LeftFoot  -3.26371 0.278846 -3.55685
LeftToes  1.06243e-005 4.65856e-005 -8.18503e-006
42
root  -10.4401 38.8054 -11.8219 169.34 -62.9388 -171.695
RightUpLeg  -17.5396 -18.564 2.12078
RightLeg  29.0589 5.4848 3.0485
RightFoot  -8.95774 -0.13728 3.63483
RightToes  0.00048216 0.542163 -0.142577
Spine  21.3294 -6.61656 8.05377
Spine1  9.07008 -6.32534 4.11311
HEad  4.17445 18.9883 -12.9323
LeftShoulder1  6.9227 -11.7769 -39.1013
LeftArm  -6.29649 -7.90725 -41.8356
LeftForeArm  28.6168 -27.2002 -4.31501
LeftHand  -0.25398 0.0180481 5.50724
RightShoulder  4.37216 8.91702 29.2223
RightArm  -16.1829 -10.808 38.6746
RightForeArm  10.1908 10.0852 4.91186
RightHand  -0.687567 0.546768 -13.4989
LeftUpLeg  -5.45573 10.4912 10.4135
LeftLeg  56.5754 4.70273 8.19554
LeftFoot  -4.17171 0.315354 -4.67123
LeftToes  1.06243e-005 4.65856e-005 -8.18503e-006
43
root  -11.3787 39.0464 -12.4885 170.001 -62.3426 -172.229
RightUpLeg  -15.099 -19.1437 1.61303
RightLeg  28.05 6.70449 3.62086
RightFoot  -10.2168 -0.108438 3.97791
RightToes  0.00048216 0.542163 -0.142577
Spine  20.9562 -5.78536 8.79051
Spine1  9.56956 -5.14323 3.31934
HEad  4.46466 17.8492 -13.0277
LeftShoulder1  7.02154 -11.9153 -39.3251
LeftArm  -7.2744 -6.56099 -40.7655
LeftForeArm  28.4143 -27.1941 -4.32445
LeftHand  -0.25398 0.0180481 5.50724
RightShoulder  4.34883 8.83792 29.2604
RightArm  -14.3231 -6.37705 36.2154
RightForeArm  7.07427 11.7981 5.39555
RightHand  -0.880185 1.4852 -14.9921
LeftUpLeg  -10.2671 11.6311 8.95944
LeftLeg  57.9145 3.70787 6.90599
LeftFoot  -5.26164 0.358263 -6.12304
LeftToes  1.06243e-005 4.65856e-005 -8.18503e-006
44
root  -12.338 39.3036 -13.1553 170.802 -62.2343 -172.875
RightUpLeg  -12.344 -19.766 0.854044
RightLeg  26.424 7.75307 3.93334
RightFoot  -11.3437 -0.0765612 4.51323
RightToes  0.00048216 0.542163 -0.142577
Spine  20.5562 -5.04092 9.2304
Spine1  9.59789 -4.18781 2.65729
HEad  4.93905 16.8119 -13.1135
LeftShoulder1  7.1296 -12.0166 -39.7042
LeftArm  -8.04376 -4.87366 -39.4748
LeftForeArm  27.8425 -26.7908 -4.2667
LeftHand  -0.25398 0.0180481 5.50724
RightShoulder  4.35765 8.79028 29.4728
RightArm  -12.609 -2.45331 33.6083
RightForeArm  4.53516 14.339 5.44462
RightHand  -1.02413 1.9705 -16.2944
LeftUpLeg  -14.8302 12.9855 7.07676
LeftLeg  56.5106 4.31131 7.48399
LeftFoot  -5.93763 0.297278 -5.52311
LeftToes  1.06243e-005 4.65856e-005 -8.18503e-006
45
root  -13.3024 39.5249 -13.8151 171.613 -62.6831 -173.648
RightUpLeg  -9.38728 -20.3662 -0.166529
RightLeg  24.6858 8.35785 3.98864
RightFoot  -12.3783 -0.0376808 5.13746
RightToes  0.00048216 0.542163 -0.142577
Spine  20.1859 -4.43898 9.40848
Spine1  9.43418 -3.46064 1.9881
HEad  5.53465 15.7512 -13.0238
LeftShoulder1  7.29704 -12.1934 -40.2242
LeftArm  -8.34412 -3.2035 -37.8582
LeftForeArm  26.8791 -25.9071 -4.12474
LeftHand  -0.25398 0.0180481 5.50724
RightShoulder  4.38869 8.81518 29.6567
RightArm  -11.6364 0.94903 31.1979
RightForeArm  1.89323 16.9397 5.22855
RightHand  -1.16382 2.50183 -17.2648
LeftUpLeg  -18.7656 14.4145 4.88771
LeftLeg  52.6124 4.86781 7.28403
LeftFoot  -6.82468 0.231243 -4.85768
LeftToes  1.06243e-005 4.65856e-005 -8.18503e-006
